# xmcd
# 
# Track frame offsets:
#     150
#     15363
#     28914
#     51047
#     65108
#     75053
#     94168
#     106748
#     115378
#     132666
#     152597
#     174087
# 
# Disc length: 2436
# 
# Revision: 1
# Processed by: cddbd v1.5.2PL0 Copyright (c) Steve Scherf et al.
# Submitted via: fre:ac v1.0.31
# 
DISCID=8c09820c
DTITLE=Christmas - Leanne Rimes Today is Christmas
DYEAR=2015
DGENRE=Christmas
TTITLE0=Today Is Christmas
TTITLE1=We Need a Little Christmas
TTITLE2=That Spirit of Christmas (Duet with Aloe Blaac)
TTITLE3=I Still Believe in Santa Claus
TTITLE4=Holly Jolly Christmas - Frosty the Snowman
TTITLE5=Celebrate Me Home (Duet with Gavin Degraw)
TTITLE6=Must Be Santa
TTITLE7=Christmas Time Is Here
TTITLE8=The Heartache Can Wait
TTITLE9=A Little Drummer Boy
TTITLE10=Joy (God Rest Ye Merry Gentlemen - Angels  We Have Heard - Hark the Herals
TTITLE11=Auld Lang Syne
EXTD=
EXTT0=
EXTT1=
EXTT2=
EXTT3=
EXTT4=
EXTT5=
EXTT6=
EXTT7=
EXTT8=
EXTT9=
EXTT10=
EXTT11=
PLAYORDER=
